<svg xmlns="http://www.w3.org/2000/svg" viewBox="0 0 389.25 90.69"><defs><style>.cls-1{fill:#cf2626;}.cls-2{fill:#fff;}.cls-3{fill:#edc135;}</style></defs><title>Logo L&amp;apos;uchiwa</title><g id="Calque_2" data-name="Calque 2"><g id="Calque_9" data-name="Calque 9"><circle class="cls-1" cx="41.54" cy="44.26" r="29.12"/><path class="cls-2" d="M41.46,48.86A29.08,29.08,0,0,0,17.7,61.15a29.1,29.1,0,0,0,47.52,0A29.08,29.08,0,0,0,41.46,48.86Z"/><path class="cls-3" d="M55.78,71.62c6.53-2.32,16.62-7,16.88-19,.14-6.62-4.36-12-10-17.94-.15-.16,1.44-1.28,4.57-1.47,1.91-.12,3.2,1,4.78.91a14.92,14.92,0,0,0,4.12-.91,10.89,10.89,0,0,0-5.6-1.91c-2-.1-3.45-1.71-5.3-1.82a68.46,68.46,0,0,1-8.55-1.21c-3-3.13-3.34-3.46-4.71-6a13,13,0,0,1-1.3-8.1c.27-2.42,7.35-3.35,8.3-3.34,5.42.06,9.57,3,12.38,5.38.43.37-1.76.59-1.83.59a22.09,22.09,0,0,0-2.74,1c-.2.1-2.3,1.47-2.5,2.06s-1.88,1.79-1.76,1.95,3.08-1,5-1.5c.61-.15,2.18-.38,2.23-.4.44-.15,3.42-.88,3.67-.88a3.75,3.75,0,0,1,1.91,1.23c4.59,8.41,5.2,18.32,5.24,23,0,1.06-.06,2.82-.14,3.8,0,.22-1.35-1.32-1.83-1.32a16.73,16.73,0,0,1-2.68,0c-.89-.14-3.19-.92-3.22-.69a7.23,7.23,0,0,0,2.61,2.33c.48.27,2.32,2.09,2.59,2.22,1.14.57,2.07.33,2,.54C76,68.79,55.78,71.62,55.78,71.62Z"/><path class="cls-3" d="M25.46,19.08c-6.53,2.32-16.62,7-16.88,19-.14,6.62,4.36,12,10,17.94.15.16-1.44,1.28-4.57,1.47-1.91.12-3.2-1-4.78-.91a14.92,14.92,0,0,0-4.12.91,10.89,10.89,0,0,0,5.6,1.91c2,.1,3.45,1.71,5.3,1.82a68.46,68.46,0,0,1,8.55,1.21c3,3.13,3.34,3.46,4.71,6a13,13,0,0,1,1.3,8.1c-.27,2.42-7.35,3.35-8.3,3.34-5.42-.06-9.57-3-12.38-5.38-.43-.37,1.76-.59,1.83-.59a22.09,22.09,0,0,0,2.74-1c.2-.1,2.3-1.47,2.5-2.06s1.88-1.79,1.76-1.95-3.08,1-5,1.5c-.61.15-2.18.38-2.23.4-.44.15-3.42.88-3.67.88a3.75,3.75,0,0,1-1.91-1.23C1.35,62.05.74,52.15.7,47.43c0-1.06.06-2.82.14-3.8C.86,43.41,2.19,45,2.67,45a16.73,16.73,0,0,1,2.68,0c.89.14,3.19.92,3.22.69A7.23,7.23,0,0,0,6,43.36c-.48-.27-2.32-2.09-2.59-2.22-1.14-.57-2.07-.33-2-.54C5.26,21.92,25.46,19.08,25.46,19.08Z"/><path class="cls-3" d="M79.27,55.21a26.61,26.61,0,0,1-5.89,8.37c-4.45,4.36-11.11,6.7-11.11,6.7s3.37-1.08,3.84.12c.6,1.51-2.52,8.79-3.13,9.15-.27.16,5.09-2,4.89-1.68C62.42,87.81,49,90.69,49,90.69s15-.4,24.67-10.58C82.82,70.48,79.27,55.21,79.27,55.21Z"/><path class="cls-3" d="M1.8,35.48a26.61,26.61,0,0,1,5.89-8.37c4.45-4.36,11.11-6.7,11.11-6.7s-3.37,1.08-3.84-.12c-.6-1.51,2.52-8.79,3.13-9.15.27-.16-5.09,2-4.89,1.68C18.65,2.88,32.1,0,32.1,0S17.12.4,7.42,10.58C-1.75,20.21,1.8,35.48,1.8,35.48Z"/><rect class="cls-2" x="39.64" y="66.39" width="3.17" height="14.07"/><path class="cls-3" d="M4,71.77l5.82,4.91a11,11,0,0,0,1.75,2.6C3.8,77.93,0,80.31,0,80.2l3.11-1.83c.07-.39-1.59-.9-1.57-1.21a7.06,7.06,0,0,1-.23-1.46s2.85-.67,2.75-.87l-2.14-3.2C4.26,71.44,3.68,71.67,4,71.77Z"/><path class="cls-3" d="M80.39,22.63l-5.82-4.91a11,11,0,0,0-1.75-2.6c7.74,1.35,11.56-1,11.54-.93L81.24,16c-.07.39,1.59.9,1.57,1.21A7.06,7.06,0,0,1,83,18.7s-2.85.67-2.75.87l2.14,3.2C80.09,23,80.68,22.73,80.39,22.63Z"/><path class="cls-2" d="M232.48,39.21a7.09,7.09,0,0,1,.71-.31c4.25-1.08,4.18-.27,4.16-5.53,0-4.56-.12-9.12-.19-13.79.32-.17.68-.5,1-.51,2.35-.09,4.71-.14,7.06-.12,1.06,0,1.79.5,1.28,2a25.73,25.73,0,0,0-1.1,4.85c-.34,2.55-.52,5.14-.75,7.71-.07.8.55,1.56,1.22,1.46,1.1-.16,2.2-.33,3.28-.57,2.44-.53,4.89-1.07,7.32-1.67a29.9,29.9,0,0,0,2.83-1,16.32,16.32,0,0,0,.41-2.25c.1-2.28.09-4.57.19-6.85a4.71,4.71,0,0,1,.48-1.69.93.93,0,0,1,1-.63,12.33,12.33,0,0,1,2.39.66c1.41.64,1.76,1.6,1.41,3.31s-.68,3.27-.92,4.92a1.16,1.16,0,0,0,.89,1.33,3.12,3.12,0,0,1,.78.31c.47.29,1,1.15.8,1.48a2.86,2.86,0,0,1-.79,1,4,4,0,0,1-1.17.44A2.59,2.59,0,0,0,262.94,36c-.81,4.64-1.74,9.25-2.38,13.92-.25,1.79-.41,3.6-.8,5.37a3.45,3.45,0,0,1-.26.87,1.08,1.08,0,0,1-1,.68,1.32,1.32,0,0,1-1.23-1,16.09,16.09,0,0,1,0-1.82c.18-2.58.36-5.16.6-7.74.17-1.82.42-3.63.64-5.44.09-.76.21-1.51.29-2.26.18-1.77-.36-2.34-1.8-1.91-.53.16-1.06.35-1.59.54-3.3,1.15-6.58,2.36-9.9,3.44a3.6,3.6,0,0,0-2.61,3.17c-.49,3.31-1.42,6.52-1.72,9.87a18.35,18.35,0,0,1-.9,3.5A1.5,1.5,0,0,1,239,58.23a1.93,1.93,0,0,1-1.65-1.17,11.79,11.79,0,0,1-.27-2.25c0-2.59.13-5.18.16-7.77a7,7,0,0,0-.23-1.79.78.78,0,0,0-.6-.48c-.68.07-1.34.29-2,.39a1.59,1.59,0,0,1-1.5-1.29C232.75,42.39,232.63,40.9,232.48,39.21Z"/><path class="cls-2" d="M195,56.7a1.65,1.65,0,0,1-1.66.12,3.92,3.92,0,0,1-2.1-1.46,11.33,11.33,0,0,1-1.67-3.91c-.4-1.65-.87-3.28-1.31-4.9a3.32,3.32,0,0,0-1.36.59c-.58.34-6.24,5.95-9.58,9.22a3.52,3.52,0,0,1-1.87.58c-5.15.62-11.37-5.42-13.1-15.58-1.08-4.91-.94-9.89-1.09-14.85-.05-1.84,0-3.69.09-5.54a5.31,5.31,0,0,1,.41-1.63,1,1,0,0,1,.61-.51c1.89-.44,3.34.27,3.8,1.91.68,2.47,2.76,28.6,9.61,30.82a21.44,21.44,0,0,0,10.71-7.66,3.55,3.55,0,0,0,.66-2.65c-.54-2.65-1.07-5.29-1.68-7.93a111.63,111.63,0,0,1-2.2-11.72,2.84,2.84,0,0,1,0-1.25,1.45,1.45,0,0,1,.82-.85,5.92,5.92,0,0,1,2.15-.12,2.82,2.82,0,0,1,2.5,2.59c.3,4.39.63,8.78.84,13.18C189.72,38.83,191.23,54.39,195,56.7Z"/><path class="cls-2" d="M337.74,31.7a11.72,11.72,0,0,1,3.53-3.82,3,3,0,0,1,1.19-.33,1.35,1.35,0,0,1,1.31.87,8.72,8.72,0,0,1,.22,1.34c.06,2,.09,4,.14,6a1.21,1.21,0,0,0,1.43,1.22c1.07-.28,2.12-.62,3.19-.92.41-.12,1,.29,1.32.9.21.37.12,1.12-.16,1.22-1.19.4-2.4.71-3.56,1.18a16.84,16.84,0,0,0-2.14,1.23,42.06,42.06,0,0,0-.12,8.83c.21,2,.38,4,.5,5.94a13.46,13.46,0,0,1-.19,2.25c0,.31-.67.82-.95.7a2.23,2.23,0,0,1-1-.69,3.08,3.08,0,0,1-.36-1.29c-.31-2.58-.58-5.16-.9-7.73-.23-1.81-.5-3.62-.77-5.43a1.12,1.12,0,0,0-1.22-1l-8.8,2.67a3.56,3.56,0,0,0-2.13,2,53.93,53.93,0,0,0-3.36,7.86c-.18.58-.34,1.16-.54,1.73a1.44,1.44,0,0,1-1.63,1,2,2,0,0,1-1.33-2,11.49,11.49,0,0,1,.22-1.35c.3-1.18.66-2.34.95-3.51.57-2.29.56-2.3-.91-4.64.13-.52.29-1.09.41-1.68s.19-1.17.27-1.66a3.79,3.79,0,0,1,.85-.45,2,2,0,0,0,1.6-1.27,3.18,3.18,0,0,0,.16-.42,85.18,85.18,0,0,1,4.62-12.26c1-2.46,4.25-5.93,6-8a2.33,2.33,0,0,1,2.23-1,20,20,0,0,1,5.28,3.2,1.31,1.31,0,0,1-.21,1.95c-2.31,1.29-3.86,3.41-5.38,5.62a58.3,58.3,0,0,0-4.77,8c-.12.25-.21.75-.1.85a2.42,2.42,0,0,0,1,.49,1.72,1.72,0,0,0,.82-.07c1.21-.33,2.42-.66,3.62-1a1.68,1.68,0,0,0,.94-2.19C338.65,34.64,338.2,33.2,337.74,31.7Z"/><path class="cls-2" d="M321.14,20.58a41.75,41.75,0,0,1-1.39,8c-1,3.94-2.07,7.84-3.11,11.76-.28,1-.57,2.09-.81,3.14-.36,1.58-2.05,6.18-3.16,6.17-.89,0-1.35-.81-1.9-1.38-1.12-1.17-2.23-2.36-3.35-3.53a.79.79,0,0,0-1.32.24q-.86,2.06-1.67,4.13a40.43,40.43,0,0,1-3,6.63,11.59,11.59,0,0,1-1.19,1.63,1.74,1.74,0,0,1-2.8-.05A7.28,7.28,0,0,1,296,54.44a116.5,116.5,0,0,1-3.14-14.25c-.59-4.3-1.62-8.5-2.49-12.74a5.33,5.33,0,0,1-.19-3.17.76.76,0,0,1,.63-.3,1.09,1.09,0,0,1,.66.38,4.51,4.51,0,0,1,.63,1A69.6,69.6,0,0,1,296.42,38c.85,3.69,1.83,7.35,2.78,11,.13.52.36,1,.54,1.53a.74.74,0,0,0,1,.27A4.26,4.26,0,0,0,302.27,49c.78-1.87,1.54-3.75,2.27-5.63a2.15,2.15,0,0,0-.41-2.27,7.52,7.52,0,0,1-.71-1,2.3,2.3,0,0,1,.35-1.9A1,1,0,0,1,304.9,38a1.41,1.41,0,0,0,1.72-.62c.14-.19.45-.26.69-.36.43-.18,1.25.37,1.14.81-.19.78-.45,1.54-.66,2.31a2.27,2.27,0,0,0,.5,2.27c.83.88,1.75,1.69,2.64,2.51a1,1,0,0,0,1.42-.27,8.27,8.27,0,0,0,.62-1,20.91,20.91,0,0,0,.89-2.26c1.23-4,2.5-8,3.61-12,.75-2.73,1.24-5.54,1.88-8.31a19.37,19.37,0,0,1,.62-1.92c.11-.33.36-.46.62-.27a1.12,1.12,0,0,1,.46.58A7.16,7.16,0,0,1,321.14,20.58Z"/><path class="cls-2" d="M197.41,41.29a36.66,36.66,0,0,1,1.77-9.65,20.56,20.56,0,0,1,6.38-9.76,7.52,7.52,0,0,1,3.23-1.72c1.47-.34,2.93-.78,4.42-1A17.81,17.81,0,0,1,216.9,19a5.07,5.07,0,0,1,3.57,1.83,3.53,3.53,0,0,1,.64,3.08.84.84,0,0,1-.57.5c-.94.17-1.92.18-2.85.39a27,27,0,0,0-13.32,7.73,16.42,16.42,0,0,0-4.47,9.42A15.39,15.39,0,0,0,202,51.67a8.2,8.2,0,0,0,5.55,3.91,13.45,13.45,0,0,0,8.11-.58c2.56-1,5-2.19,7.55-3.27.87-.38,1.77-.7,2.67-1,.11,0,.36,0,.37.07,0,.21.1.55,0,.64a30.26,30.26,0,0,1-12,6.14c-4.45,1.16-8.47-.07-12.05-2.69A9.82,9.82,0,0,1,199,50.68,18.48,18.48,0,0,1,197.41,41.29Z"/><path class="cls-2" d="M278,38.66c-.61,5.36-1.21,10.71-1.84,16.07a24.63,24.63,0,0,1-.54,2.54c-.07.32-.77.5-1,.25s-.69-.59-.78-1a8.26,8.26,0,0,1-.2-2.16,104.05,104.05,0,0,0-.4-10.49c-.15-2-.15-4.08-.11-6.12.09-5.11.24-10.21.38-15.32,0-.44.05-.87.1-1.31a1.79,1.79,0,0,1,1.21-1.58,9.32,9.32,0,0,1,3.68-.32c1.41.17,1.73.9,1.36,2a23.88,23.88,0,0,0-.73,5.62C278.81,30.83,278.1,38.67,278,38.66Z"/><path class="cls-2" d="M371.7,25.2a45.69,45.69,0,0,1,8.37-1.63c2.51,0,5.07,1.21,5.07,4.86,0,3.88-2.8,6.33-8.08,8a14.88,14.88,0,0,0-2-2.58c4.72-1.17,6.8-3.21,6.8-5.17,0-1.42-.72-2.25-2-2.25a19,19,0,0,0-6.62,1.63c0,.19-.21.43-.43.5Zm3.38-6.57a31.84,31.84,0,0,1,7.63,1.19l-.78,3a32.87,32.87,0,0,0-7.61-1.34Z"/><path class="cls-2" d="M385.91,46.47a45.53,45.53,0,0,1-7.36,1,17.26,17.26,0,0,1-.6,3,9,9,0,0,1,4.51-1.36c2.58,0,4.66,1.26,4.66,4.39,0,4.06-3.61,5.58-10.43,5.71a14,14,0,0,0-.87-2.68c5.46-.14,8.28-1,8.28-3,0-1.24-.7-1.83-2.18-1.83a6.19,6.19,0,0,0-5,2.64l-2.87-1.22c.56-.6,1.32-2.84,1.57-5.71h-4V44.64c.93.06,2.86.06,4.23.06.06-1,.08-2.14.06-3.19l3.65.33a.62.62,0,0,1-.56.49c0,.76-.1,1.59-.16,2.29a38.29,38.29,0,0,0,6.6-1.09Z"/><path class="cls-2" d="M373.23,81.48a32.15,32.15,0,0,1-.76-7.69,48.09,48.09,0,0,1,1-8.66l3.59.66c0,.21-.31.37-.54.41A30.74,30.74,0,0,0,375.23,76c0,.33,0,.6,0,.78.21-.54.74-2,1-2.66l1.46,2a33.34,33.34,0,0,0-1.52,3.38,3.2,3.2,0,0,0-.21,1.17,5.46,5.46,0,0,0,.06.74Zm5.28-12.26c.27,0,.54,0,.82,0,.72,0,2.29,0,3.17-.06-.08-1.44-.14-2.7-.16-4.14l3.63.12a.52.52,0,0,1-.49.43V69a27.66,27.66,0,0,0,3.17-.62l.21,2.88a20.29,20.29,0,0,1-3.3.47c.06,1.55.14,3.09.23,4.37a14,14,0,0,1,3.46,2.12L387.74,81a9.49,9.49,0,0,0-1.85-1.67c-.47,2.37-2.6,2.58-3.9,2.58-2.45,0-3.87-1.42-3.87-3.26,0-2.08,1.84-3.3,3.9-3.3.27,0,.54,0,.83,0-.08-.93-.14-2.25-.21-3.44l-1.51,0h-2.58Zm4.6,8.62a3.27,3.27,0,0,0-1.07-.19c-.84,0-1.5.27-1.5.91s.64.85,1.42.85a1.09,1.09,0,0,0,1.17-1.11A4.44,4.44,0,0,0,383.12,77.85Z"/><path class="cls-2" d="M122.21,81.14l-.15-1.29H122a3.82,3.82,0,0,1-3.13,1.53,2.92,2.92,0,0,1-3.13-2.94c0-2.48,2.2-3.83,6.16-3.81v-.21A2.11,2.11,0,0,0,119.56,72a5.11,5.11,0,0,0-2.67.76l-.42-1.23a6.36,6.36,0,0,1,3.37-.91c3.13,0,3.9,2.14,3.9,4.19v3.83a14.45,14.45,0,0,0,.17,2.46Zm-.27-5.23c-2,0-4.34.32-4.34,2.31A1.65,1.65,0,0,0,119.35,80a2.55,2.55,0,0,0,2.48-1.72,2,2,0,0,0,.11-.59Z"/><path class="cls-2" d="M136.83,74.09c0-1.21,0-2.25-.08-3.2h1.63l.06,2h.08a3.08,3.08,0,0,1,2.84-2.25,2,2,0,0,1,.53.06v1.76a2.76,2.76,0,0,0-.63-.06,2.61,2.61,0,0,0-2.5,2.39,5.19,5.19,0,0,0-.08.87v5.46h-1.84Z"/><path class="cls-2" d="M156.6,67.95v2.94h2.67v1.42H156.6v5.53c0,1.27.36,2,1.4,2a4.16,4.16,0,0,0,1.08-.13l.08,1.4a4.58,4.58,0,0,1-1.65.25,2.58,2.58,0,0,1-2-.78,3.8,3.8,0,0,1-.72-2.67V72.31h-1.59V70.89h1.59V68.44Z"/><path class="cls-2" d="M173.52,68a1.15,1.15,0,0,1-2.31,0,1.13,1.13,0,0,1,1.16-1.17A1.11,1.11,0,0,1,173.52,68Zm-2.08,13.13V70.89h1.86V81.14Z"/><path class="cls-2" d="M186.24,79.24a4.88,4.88,0,0,0,2.46.74c1.36,0,2-.68,2-1.52s-.53-1.38-1.91-1.88c-1.84-.66-2.71-1.67-2.71-2.9,0-1.65,1.33-3,3.54-3a5.12,5.12,0,0,1,2.52.63l-.47,1.36a4,4,0,0,0-2.1-.59c-1.1,0-1.72.64-1.72,1.4s.61,1.23,1.95,1.74c1.78.68,2.69,1.57,2.69,3.09,0,1.8-1.4,3.07-3.83,3.07a5.84,5.84,0,0,1-2.88-.7Z"/><path class="cls-2" d="M210.64,81.14l-.15-1.29h-.06a3.82,3.82,0,0,1-3.13,1.53,2.92,2.92,0,0,1-3.13-2.94c0-2.48,2.2-3.83,6.16-3.81v-.21A2.11,2.11,0,0,0,208,72a5.11,5.11,0,0,0-2.67.76l-.42-1.23a6.36,6.36,0,0,1,3.37-.91c3.13,0,3.9,2.14,3.9,4.19v3.83a14.45,14.45,0,0,0,.17,2.46Zm-.27-5.23c-2,0-4.34.32-4.34,2.31A1.65,1.65,0,0,0,207.78,80a2.55,2.55,0,0,0,2.48-1.72,2,2,0,0,0,.11-.59Z"/><path class="cls-2" d="M225.26,73.67c0-1.06,0-1.93-.08-2.77h1.65l.11,1.69h0a3.77,3.77,0,0,1,3.39-1.93c1.42,0,3.62.85,3.62,4.36v6.12h-1.86V75.23c0-1.65-.61-3-2.37-3A2.73,2.73,0,0,0,227.12,75v6.16h-1.86Z"/><path class="cls-2" d="M261.42,79.24a4.88,4.88,0,0,0,2.46.74c1.36,0,2-.68,2-1.52s-.53-1.38-1.91-1.88c-1.84-.66-2.71-1.67-2.71-2.9,0-1.65,1.33-3,3.54-3a5.12,5.12,0,0,1,2.52.63l-.47,1.36a4,4,0,0,0-2.1-.59c-1.1,0-1.72.64-1.72,1.4s.61,1.23,1.95,1.74c1.78.68,2.69,1.57,2.69,3.09,0,1.8-1.4,3.07-3.83,3.07a5.84,5.84,0,0,1-2.88-.7Z"/><path class="cls-2" d="M288.73,78.35c0,1.06,0,2,.08,2.8h-1.65l-.11-1.67h0a3.86,3.86,0,0,1-3.39,1.91c-1.61,0-3.54-.89-3.54-4.49v-6H282v5.68c0,1.95.59,3.26,2.29,3.26a2.7,2.7,0,0,0,2.46-1.69,2.74,2.74,0,0,0,.17-1V70.89h1.86Z"/><path class="cls-2" d="M301.66,79.24a4.88,4.88,0,0,0,2.46.74c1.36,0,2-.68,2-1.52s-.53-1.38-1.91-1.88c-1.84-.66-2.71-1.67-2.71-2.9,0-1.65,1.33-3,3.54-3a5.12,5.12,0,0,1,2.52.63l-.47,1.36a4,4,0,0,0-2.1-.59c-1.1,0-1.72.64-1.72,1.4s.61,1.23,1.95,1.74c1.78.68,2.69,1.57,2.69,3.09,0,1.8-1.4,3.07-3.83,3.07a5.84,5.84,0,0,1-2.88-.7Z"/><path class="cls-2" d="M320.39,66.11h1.86v6.4h0a3.46,3.46,0,0,1,1.33-1.31,3.84,3.84,0,0,1,1.91-.53c1.38,0,3.58.85,3.58,4.38v6.1h-1.86V75.26c0-1.65-.61-3-2.37-3a2.68,2.68,0,0,0-2.5,1.86,2.25,2.25,0,0,0-.13.89v6.18h-1.86Z"/><path class="cls-2" d="M344.3,68A1.15,1.15,0,0,1,342,68a1.13,1.13,0,0,1,1.16-1.17A1.11,1.11,0,0,1,344.3,68Zm-2.08,13.13V70.89h1.86V81.14Z"/><path class="cls-2" d="M127.05,21.15a27.91,27.91,0,0,0-2.54,6.65A99,99,0,0,0,122.18,38a60.62,60.62,0,0,0-1,10q0,4.6,1.66,5.81,2.9,2.23,8.56.56T140.67,52l2.12-.36-1.51,1.12a35.16,35.16,0,0,1-4.2,1.9q-3.36,1.36-4.33,1.67a24,24,0,0,1-8.86,1.18,7.55,7.55,0,0,1-6.56-3.77q-1.39-2.32-1.69-7.14a68.65,68.65,0,0,1,.15-10.14,81.35,81.35,0,0,1,1.51-10.22,27.93,27.93,0,0,1,2.45-7.41Z"/><path class="cls-2" d="M153.48,18.16c-1.39,3.75.68,8.53-1,10.58l-3.39.31a50.24,50.24,0,0,0,3.57-10.49Z"/></g></g></svg>